<svg version="1.1" id="Layer_1" xmlns="http://www.w3.org/2000/svg" xmlns:xlink="http://www.w3.org/1999/xlink" x="0px" y="0px" width="32" height="32" viewBox="0 0 120 120" enable-background="new 0 0 120 120" xml:space="preserve">
  <path fill="#F8FD68" opacity="1.000000" stroke="none" d="
M82.000000,121.000000 
	C54.666668,121.000000 27.833334,121.000000 1.000000,121.000000 
	C1.000000,81.000000 1.000000,41.000000 1.000000,1.000000 
	C41.000000,1.000000 81.000000,1.000000 121.000000,1.000000 
	C121.000000,41.000000 121.000000,81.000000 121.000000,121.000000 
	C108.166664,121.000000 95.333336,121.000000 82.000000,121.000000 
M24.310812,97.037758 
	C25.712568,102.907280 29.777460,98.697723 32.742374,99.823288 
	C32.742374,73.683975 32.742374,48.143490 32.742374,22.443829 
	C29.879208,22.443829 27.340824,22.443829 24.305836,22.443829 
	C24.305836,47.241196 24.305836,71.679939 24.310812,97.037758 
M58.913246,97.182907 
	C60.224899,102.626053 64.278023,98.659599 67.280487,100.049057 
	C67.280487,73.831917 67.280487,48.146622 67.280487,22.488266 
	C64.350525,22.488266 61.793785,22.488266 58.908688,22.488266 
	C58.908688,47.342636 58.908688,71.790939 58.913246,97.182907 
M84.897758,38.502838 
	C84.897758,33.225433 84.897758,27.948029 84.897758,22.402527 
	C81.754616,22.402527 79.206787,22.402527 76.396744,22.402527 
	C76.396744,48.250862 76.396744,73.782249 76.396744,99.594620 
	C79.241577,99.594620 81.789108,99.594620 84.897751,99.594620 
	C84.897751,79.355392 84.897751,59.428680 84.897758,38.502838 
M50.238670,36.505325 
	C50.238670,31.770412 50.238670,27.035498 50.238670,22.502535 
	C46.879642,22.502535 44.472298,22.502535 42.106560,22.502535 
	C42.106560,48.421223 42.106560,73.954140 42.106560,99.578407 
	C44.900127,99.578407 47.305824,99.578407 50.238693,99.578407 
	C50.238693,78.689224 50.238693,58.096611 50.238670,36.505325 
M102.105835,55.806183 
	C102.617813,51.303612 99.330093,52.459305 96.876297,52.226006 
	C93.908852,51.943867 93.153336,53.442657 93.306923,56.071560 
	C93.441513,58.375179 93.331673,60.692978 93.332687,63.004513 
	C93.335968,70.504898 93.951256,70.948456 102.107025,68.915947 
	C102.107025,64.934074 102.107025,60.835125 102.105835,55.806183 
z" />
  <path fill="#2B2B22" opacity="1.000000" stroke="none" d="
M24.308323,96.578217 
	C24.305836,71.679939 24.305836,47.241196 24.305836,22.443829 
	C27.340824,22.443829 29.879208,22.443829 32.742374,22.443829 
	C32.742374,48.143490 32.742374,73.683975 32.742374,99.823288 
	C29.777460,98.697723 25.712568,102.907280 24.308323,96.578217 
z" />
  <path fill="#2B2C22" opacity="1.000000" stroke="none" d="
M58.910965,96.711075 
	C58.908688,71.790939 58.908688,47.342636 58.908688,22.488266 
	C61.793785,22.488266 64.350525,22.488266 67.280487,22.488266 
	C67.280487,48.146622 67.280487,73.831917 67.280487,100.049057 
	C64.278023,98.659599 60.224899,102.626053 58.910965,96.711075 
z" />
  <path fill="#2A2A22" opacity="1.000000" stroke="none" d="
M84.897751,39.002403 
	C84.897751,59.428680 84.897751,79.355392 84.897751,99.594620 
	C81.789108,99.594620 79.241577,99.594620 76.396744,99.594620 
	C76.396744,73.782249 76.396744,48.250862 76.396744,22.402527 
	C79.206787,22.402527 81.754616,22.402527 84.897758,22.402527 
	C84.897758,27.948029 84.897758,33.225433 84.897751,39.002403 
z" />
  <path fill="#1F1F1E" opacity="1.000000" stroke="none" d="
M50.238682,37.004662 
	C50.238693,58.096611 50.238693,78.689224 50.238693,99.578407 
	C47.305824,99.578407 44.900127,99.578407 42.106560,99.578407 
	C42.106560,73.954140 42.106560,48.421223 42.106560,22.502535 
	C44.472298,22.502535 46.879642,22.502535 50.238670,22.502535 
	C50.238670,27.035498 50.238670,31.770412 50.238682,37.004662 
z" />
  <path fill="#313124" opacity="1.000000" stroke="none" d="
M102.106430,56.271179 
	C102.107025,60.835125 102.107025,64.934074 102.107025,68.915947 
	C93.951256,70.948456 93.335968,70.504898 93.332687,63.004513 
	C93.331673,60.692978 93.441513,58.375179 93.306923,56.071560 
	C93.153336,53.442657 93.908852,51.943867 96.876297,52.226006 
	C99.330093,52.459305 102.617813,51.303612 102.106430,56.271179 
z" />
</svg>