<svg xmlns="http://www.w3.org/2000/svg" xmlns:v="https://svgstorm.com"
viewBox = "0 0 300 300"
width="32px"
height="32px">
<g fill="None" fill-opacity="0.0" stroke="#000000" stroke-opacity="0.00" stroke-width="0.3"><path d="
M 0.00 300.00 
L 300.00 300.00
L 300.00 0.00
L 0.00 0.00
L 0.00 300.00
M 262.00 47.00 
C 262.89 70.18 262.08 94.93 262.00 118.00 C 261.92 141.07 263.05 167.54 262.00 190.00 C 260.95 212.46 265.20 239.48 261.07 260.07 C 256.94 280.67 235.83 283.56 218.93 289.93 C 202.03 296.29 174.25 298.00 155.00 298.00
C 152.81 298.21 150.13 298.21 148.00 298.00
C 146.04 297.81 143.97 298.00 142.00 298.00
C 123.45 298.00 97.29 295.21 80.78 289.22 C 64.27 283.23 42.99 280.55 39.01 259.99 C 35.03 239.44 39.10 212.35 38.00 190.00 C 36.90 167.65 38.41 141.98 38.00 119.00 C 37.59 96.02 38.00 71.15 38.00 48.00
C 38.00 46.35 37.89 44.65 38.00 43.00
C 39.22 25.30 55.97 20.00 70.67 13.67 C 85.37 7.35 104.73 4.95 122.00 3.00 C 139.27 1.05 163.43 0.65 181.00 3.00 C 198.57 5.35 215.68 8.03 231.68 14.32 C 247.68 20.62 261.29 28.51 262.00 47.00 Z"/>
</g>
<g fill="None" fill-opacity="0.0" stroke="#FCFEFC" stroke-opacity="0.98" stroke-width="0.3"><path d="
M 38.00 43.00 
C 38.10 43.95 39.52 45.31 39.00 47.00
C 42.41 59.23 57.89 65.48 69.02 69.98 C 80.16 74.47 99.18 79.74 112.00 80.00
C 114.84 80.06 117.85 80.69 120.00 81.00
C 126.67 81.25 133.09 82.00 140.00 82.00
C 148.23 82.00 157.92 82.33 166.00 82.00 C 174.08 81.67 183.44 81.21 191.00 80.00 C 198.56 78.79 205.44 77.15 212.23 75.23 C 219.01 73.31 227.35 72.07 233.22 69.22 C 239.09 66.37 245.60 63.65 250.08 60.08 C 254.57 56.51 261.32 49.35 262.00 47.00
C 261.29 28.51 247.68 20.62 231.68 14.32 C 215.68 8.03 198.57 5.35 181.00 3.00 C 163.43 0.65 139.27 1.05 122.00 3.00 C 104.73 4.95 85.37 7.35 70.67 13.67 C 55.97 20.00 39.22 25.30 38.00 43.00
M 210.00 19.00 
C 221.81 20.32 231.58 27.36 240.00 35.00
C 241.47 49.99 226.61 57.22 214.00 59.00
C 192.53 62.99 171.79 67.22 149.00 67.00 C 126.21 66.78 105.41 62.51 84.00 58.00
C 71.41 55.35 56.83 47.95 61.00 33.00
C 66.03 30.63 71.47 23.80 77.00 24.00
C 97.24 13.99 118.21 15.55 141.00 13.00 C 163.79 10.45 188.34 16.58 210.00 19.00 Z"/>
</g>
<g fill="None" fill-opacity="0.0" stroke="#B7D436" stroke-opacity="1.00" stroke-width="0.3"><path d="
M 77.00 24.00 
C 71.20 26.87 58.70 34.60 62.00 43.00 C 65.30 51.40 74.64 54.37 82.00 57.00
C 81.07 54.85 92.06 52.57 95.67 51.67 C 99.29 50.78 107.30 49.58 112.22 48.22 C 117.15 46.87 125.18 47.83 131.00 47.00 C 136.82 46.17 143.20 45.45 150.00 46.00 C 156.80 46.55 160.69 44.78 168.22 46.78 C 175.75 48.78 177.87 44.71 187.00 48.00 C 196.13 51.29 211.19 50.30 218.00 57.00
C 225.19 54.32 244.09 45.00 237.07 34.93 C 230.05 24.85 219.92 22.22 210.00 19.00
C 188.34 16.58 163.79 10.45 141.00 13.00 C 118.21 15.55 97.24 13.99 77.00 24.00 Z"/>
</g>
<g fill="None" fill-opacity="0.0" stroke="#F7FCD7" stroke-opacity="1.00" stroke-width="0.3"><path d="
M 218.00 57.00 
C 216.68 57.49 215.06 58.59 214.00 59.00
C 226.61 57.22 241.47 49.99 240.00 35.00
C 231.58 27.36 221.81 20.32 210.00 19.00
C 219.92 22.22 230.05 24.85 237.07 34.93 C 244.09 45.00 225.19 54.32 218.00 57.00 Z"/>
</g>
<g fill="None" fill-opacity="0.0" stroke="#F7FCD4" stroke-opacity="1.00" stroke-width="0.3"><path d="
M 84.00 58.00 
C 83.66 57.88 82.62 57.22 82.00 57.00
C 74.64 54.37 65.30 51.40 62.00 43.00 C 58.70 34.60 71.20 26.87 77.00 24.00
C 71.47 23.80 66.03 30.63 61.00 33.00
C 56.83 47.95 71.41 55.35 84.00 58.00 Z"/>
</g>
<g fill="None" fill-opacity="0.0" stroke="#6B859B" stroke-opacity="0.12" stroke-width="0.3"><path d="
M 38.00 48.00 
C 38.05 47.77 38.89 47.35 39.00 47.00
C 39.52 45.31 38.10 43.95 38.00 43.00
C 37.89 44.65 38.00 46.35 38.00 48.00 Z"/>
</g>
<g fill="None" fill-opacity="0.0" stroke="#83BB17" stroke-opacity="1.00" stroke-width="0.3"><path d="
M 82.00 57.00 
C 82.62 57.22 83.66 57.88 84.00 58.00
C 105.41 62.51 126.21 66.78 149.00 67.00 C 171.79 67.22 192.53 62.99 214.00 59.00
C 215.06 58.59 216.68 57.49 218.00 57.00
C 211.19 50.30 196.13 51.29 187.00 48.00 C 177.87 44.71 175.75 48.78 168.22 46.78 C 160.69 44.78 156.80 46.55 150.00 46.00 C 143.20 45.45 136.82 46.17 131.00 47.00 C 125.18 47.83 117.15 46.87 112.22 48.22 C 107.30 49.58 99.29 50.78 95.67 51.67 C 92.06 52.57 81.07 54.85 82.00 57.00 Z"/>
</g>
<g fill="None" fill-opacity="0.0" stroke="#5AB4D9" stroke-opacity="0.99" stroke-width="0.3"><path d="
M 140.00 82.00 
C 141.95 82.19 145.34 83.93 148.00 83.00
C 148.67 154.58 146.67 226.87 149.00 298.00
C 151.00 298.00 153.00 298.00 155.00 298.00
C 174.25 298.00 202.03 296.29 218.93 289.93 C 235.83 283.56 256.94 280.67 261.07 260.07 C 265.20 239.48 260.95 212.46 262.00 190.00 C 263.05 167.54 261.92 141.07 262.00 118.00 C 262.08 94.93 262.89 70.18 262.00 47.00
C 261.32 49.35 254.57 56.51 250.08 60.08 C 245.60 63.65 239.09 66.37 233.22 69.22 C 227.35 72.07 219.01 73.31 212.23 75.23 C 205.44 77.15 198.56 78.79 191.00 80.00 C 183.44 81.21 174.08 81.67 166.00 82.00 C 157.92 82.33 148.23 82.00 140.00 82.00
M 219.00 180.00 
C 219.00 185.00 219.00 190.00 219.00 195.00
C 201.00 196.87 210.69 219.34 206.22 232.22 C 201.76 245.11 186.88 251.33 173.00 249.00
C 173.00 244.00 173.00 239.00 173.00 234.00
C 196.88 231.57 174.52 195.92 195.00 188.00
C 175.29 177.44 194.90 145.35 173.00 140.00
C 173.00 135.00 173.00 130.00 173.00 125.00
C 186.13 123.94 202.75 127.69 206.78 141.22 C 210.80 154.76 201.42 175.50 219.00 180.00 Z"/>
</g>
<g fill="None" fill-opacity="0.0" stroke="#3A98C4" stroke-opacity="0.99" stroke-width="0.3"><path d="
M 38.00 48.00 
C 38.00 71.15 37.59 96.02 38.00 119.00 C 38.41 141.98 36.90 167.65 38.00 190.00 C 39.10 212.35 35.03 239.44 39.01 259.99 C 42.99 280.55 64.27 283.23 80.78 289.22 C 97.29 295.21 123.45 298.00 142.00 298.00
C 144.15 297.83 145.62 296.14 148.00 298.00
C 148.31 298.24 149.00 298.00 149.00 298.00
C 146.67 226.87 148.67 154.58 148.00 83.00
C 145.34 83.93 141.95 82.19 140.00 82.00
C 133.09 82.00 126.67 81.25 120.00 81.00
C 117.24 80.89 114.07 80.25 112.00 80.00
C 99.18 79.74 80.16 74.47 69.02 69.98 C 57.89 65.48 42.41 59.23 39.00 47.00
C 38.89 47.35 38.05 47.77 38.00 48.00
M 76.00 195.00 
C 74.98 194.43 73.09 195.43 72.00 195.00
C 72.00 189.33 72.00 183.67 72.00 178.00
C 73.00 178.00 74.00 178.00 75.00 178.00
C 78.87 175.45 81.32 174.79 83.00 170.00
C 84.70 161.80 82.61 151.76 84.00 144.00
C 85.13 127.46 104.01 122.36 118.00 123.00
C 120.58 134.09 117.11 138.40 109.25 142.25 C 101.40 146.11 107.83 160.23 105.67 166.67 C 103.51 173.11 103.82 182.92 95.00 185.00
C 116.05 193.73 94.15 230.14 118.00 232.00
C 118.00 237.67 118.00 243.33 118.00 249.00
C 104.62 250.54 89.93 246.74 85.02 233.98 C 80.12 221.21 88.68 203.20 76.00 195.00 Z"/>
</g>
<g fill="None" fill-opacity="0.0" stroke="#AFE2F1" stroke-opacity="1.00" stroke-width="0.3"><path d="
M 120.00 81.00 
C 117.85 80.69 114.84 80.06 112.00 80.00
C 114.07 80.25 117.24 80.89 120.00 81.00 Z"/>
</g>
<g fill="None" fill-opacity="0.0" stroke="#F9FDFE" stroke-opacity="1.00" stroke-width="0.3"><path d="
M 84.00 144.00 
C 83.43 152.34 85.61 162.57 83.00 170.00
C 81.32 174.79 78.87 175.45 75.00 178.00
C 71.08 181.69 73.80 188.72 73.00 194.00
C 74.00 194.11 75.73 193.53 76.00 195.00
C 88.68 203.20 80.12 221.21 85.02 233.98 C 89.93 246.74 104.62 250.54 118.00 249.00
C 118.00 243.33 118.00 237.67 118.00 232.00
C 94.15 230.14 116.05 193.73 95.00 185.00
C 103.82 182.92 103.51 173.11 105.67 166.67 C 107.83 160.23 101.40 146.11 109.25 142.25 C 117.11 138.40 120.58 134.09 118.00 123.00
C 104.01 122.36 85.13 127.46 84.00 144.00 Z"/>
</g>
<g fill="None" fill-opacity="0.0" stroke="#F9FDFE" stroke-opacity="1.00" stroke-width="0.3"><path d="
M 219.00 180.00 
C 201.42 175.50 210.80 154.76 206.78 141.22 C 202.75 127.69 186.13 123.94 173.00 125.00
C 173.00 130.00 173.00 135.00 173.00 140.00
C 194.90 145.35 175.29 177.44 195.00 188.00
C 174.52 195.92 196.88 231.57 173.00 234.00
C 173.00 239.00 173.00 244.00 173.00 249.00
C 186.88 251.33 201.76 245.11 206.22 232.22 C 210.69 219.34 201.00 196.87 219.00 195.00
C 219.00 190.00 219.00 185.00 219.00 180.00 Z"/>
</g>
<g fill="None" fill-opacity="0.0" stroke="#D7F9FD" stroke-opacity="1.00" stroke-width="0.3"><path d="
M 83.00 170.00 
C 85.61 162.57 83.43 152.34 84.00 144.00
C 82.61 151.76 84.70 161.80 83.00 170.00 Z"/>
</g>
<g fill="None" fill-opacity="0.0" stroke="#9DCEDF" stroke-opacity="1.00" stroke-width="0.3"><path d="
M 76.00 195.00 
C 75.73 193.53 74.00 194.11 73.00 194.00
C 73.80 188.72 71.08 181.69 75.00 178.00
C 74.00 178.00 73.00 178.00 72.00 178.00
C 72.00 183.67 72.00 189.33 72.00 195.00
C 73.09 195.43 74.98 194.43 76.00 195.00 Z"/>
</g>
<g fill="None" fill-opacity="0.0" stroke="#4691B1" stroke-opacity="0.49" stroke-width="0.3"><path d="
M 142.00 298.00 
C 143.97 298.00 146.04 297.81 148.00 298.00
C 145.62 296.14 144.15 297.83 142.00 298.00 Z"/>
</g>
<g fill="None" fill-opacity="0.0" stroke="#55B0D5" stroke-opacity="0.16" stroke-width="0.3"><path d="
M 155.00 298.00 
C 153.00 298.00 151.00 298.00 149.00 298.00
C 149.00 298.00 148.31 298.24 148.00 298.00
C 150.13 298.21 152.81 298.21 155.00 298.00 Z"/>
</g>
<g fill="#000000" fill-opacity="0.00" stroke="None">
<path d="
M 0.00 300.00 
L 300.00 300.00
L 300.00 0.00
L 0.00 0.00
L 0.00 300.00
M 262.00 47.00 
C 262.89 70.18 262.08 94.93 262.00 118.00 C 261.92 141.07 263.05 167.54 262.00 190.00 C 260.95 212.46 265.20 239.48 261.07 260.07 C 256.94 280.67 235.83 283.56 218.93 289.93 C 202.03 296.29 174.25 298.00 155.00 298.00
C 152.81 298.21 150.13 298.21 148.00 298.00
C 146.04 297.81 143.97 298.00 142.00 298.00
C 123.45 298.00 97.29 295.21 80.78 289.22 C 64.27 283.23 42.99 280.55 39.01 259.99 C 35.03 239.44 39.10 212.35 38.00 190.00 C 36.90 167.65 38.41 141.98 38.00 119.00 C 37.59 96.02 38.00 71.15 38.00 48.00
C 38.00 46.35 37.89 44.65 38.00 43.00
C 39.22 25.30 55.97 20.00 70.67 13.67 C 85.37 7.35 104.73 4.95 122.00 3.00 C 139.27 1.05 163.43 0.65 181.00 3.00 C 198.57 5.35 215.68 8.03 231.68 14.32 C 247.68 20.62 261.29 28.51 262.00 47.00 Z"/>
</g>
<g fill="#FCFEFC" fill-opacity="0.98" stroke="None">
<path d="
M 38.00 43.00 
C 38.10 43.95 39.52 45.31 39.00 47.00
C 42.41 59.23 57.89 65.48 69.02 69.98 C 80.16 74.47 99.18 79.74 112.00 80.00
C 114.84 80.06 117.85 80.69 120.00 81.00
C 126.67 81.25 133.09 82.00 140.00 82.00
C 148.23 82.00 157.92 82.33 166.00 82.00 C 174.08 81.67 183.44 81.21 191.00 80.00 C 198.56 78.79 205.44 77.15 212.23 75.23 C 219.01 73.31 227.35 72.07 233.22 69.22 C 239.09 66.37 245.60 63.65 250.08 60.08 C 254.57 56.51 261.32 49.35 262.00 47.00
C 261.29 28.51 247.68 20.62 231.68 14.32 C 215.68 8.03 198.57 5.35 181.00 3.00 C 163.43 0.65 139.27 1.05 122.00 3.00 C 104.73 4.95 85.37 7.35 70.67 13.67 C 55.97 20.00 39.22 25.30 38.00 43.00
M 210.00 19.00 
C 221.81 20.32 231.58 27.36 240.00 35.00
C 241.47 49.99 226.61 57.22 214.00 59.00
C 192.53 62.99 171.79 67.22 149.00 67.00 C 126.21 66.78 105.41 62.51 84.00 58.00
C 71.41 55.35 56.83 47.95 61.00 33.00
C 66.03 30.63 71.47 23.80 77.00 24.00
C 97.24 13.99 118.21 15.55 141.00 13.00 C 163.79 10.45 188.34 16.58 210.00 19.00 Z"/>
</g>
<g fill="#B7D436" fill-opacity="1.00" stroke="None">
<path d="
M 77.00 24.00 
C 71.20 26.87 58.70 34.60 62.00 43.00 C 65.30 51.40 74.64 54.37 82.00 57.00
C 81.07 54.85 92.06 52.57 95.67 51.67 C 99.29 50.78 107.30 49.58 112.22 48.22 C 117.15 46.87 125.18 47.83 131.00 47.00 C 136.82 46.17 143.20 45.45 150.00 46.00 C 156.80 46.55 160.69 44.78 168.22 46.78 C 175.75 48.78 177.87 44.71 187.00 48.00 C 196.13 51.29 211.19 50.30 218.00 57.00
C 225.19 54.32 244.09 45.00 237.07 34.93 C 230.05 24.85 219.92 22.22 210.00 19.00
C 188.34 16.58 163.79 10.45 141.00 13.00 C 118.21 15.55 97.24 13.99 77.00 24.00 Z"/>
</g>
<g fill="#F7FCD7" fill-opacity="1.00" stroke="None">
<path d="
M 218.00 57.00 
C 216.68 57.49 215.06 58.59 214.00 59.00
C 226.61 57.22 241.47 49.99 240.00 35.00
C 231.58 27.36 221.81 20.32 210.00 19.00
C 219.92 22.22 230.05 24.85 237.07 34.93 C 244.09 45.00 225.19 54.32 218.00 57.00 Z"/>
</g>
<g fill="#F7FCD4" fill-opacity="1.00" stroke="None">
<path d="
M 84.00 58.00 
C 83.66 57.88 82.62 57.22 82.00 57.00
C 74.64 54.37 65.30 51.40 62.00 43.00 C 58.70 34.60 71.20 26.87 77.00 24.00
C 71.47 23.80 66.03 30.63 61.00 33.00
C 56.83 47.95 71.41 55.35 84.00 58.00 Z"/>
</g>
<g fill="#6B859B" fill-opacity="0.12" stroke="None">
<path d="
M 38.00 48.00 
C 38.05 47.77 38.89 47.35 39.00 47.00
C 39.52 45.31 38.10 43.95 38.00 43.00
C 37.89 44.65 38.00 46.35 38.00 48.00 Z"/>
</g>
<g fill="#83BB17" fill-opacity="1.00" stroke="None">
<path d="
M 82.00 57.00 
C 82.62 57.22 83.66 57.88 84.00 58.00
C 105.41 62.51 126.21 66.78 149.00 67.00 C 171.79 67.22 192.53 62.99 214.00 59.00
C 215.06 58.59 216.68 57.49 218.00 57.00
C 211.19 50.30 196.13 51.29 187.00 48.00 C 177.87 44.71 175.75 48.78 168.22 46.78 C 160.69 44.78 156.80 46.55 150.00 46.00 C 143.20 45.45 136.82 46.17 131.00 47.00 C 125.18 47.83 117.15 46.87 112.22 48.22 C 107.30 49.58 99.29 50.78 95.67 51.67 C 92.06 52.57 81.07 54.85 82.00 57.00 Z"/>
</g>
<g fill="#5AB4D9" fill-opacity="0.99" stroke="None">
<path d="
M 140.00 82.00 
C 141.95 82.19 145.34 83.93 148.00 83.00
C 148.67 154.58 146.67 226.87 149.00 298.00
C 151.00 298.00 153.00 298.00 155.00 298.00
C 174.25 298.00 202.03 296.29 218.93 289.93 C 235.83 283.56 256.94 280.67 261.07 260.07 C 265.20 239.48 260.95 212.46 262.00 190.00 C 263.05 167.54 261.92 141.07 262.00 118.00 C 262.08 94.93 262.89 70.18 262.00 47.00
C 261.32 49.35 254.57 56.51 250.08 60.08 C 245.60 63.65 239.09 66.37 233.22 69.22 C 227.35 72.07 219.01 73.31 212.23 75.23 C 205.44 77.15 198.56 78.79 191.00 80.00 C 183.44 81.21 174.08 81.67 166.00 82.00 C 157.92 82.33 148.23 82.00 140.00 82.00
M 219.00 180.00 
C 219.00 185.00 219.00 190.00 219.00 195.00
C 201.00 196.87 210.69 219.34 206.22 232.22 C 201.76 245.11 186.88 251.33 173.00 249.00
C 173.00 244.00 173.00 239.00 173.00 234.00
C 196.88 231.57 174.52 195.92 195.00 188.00
C 175.29 177.44 194.90 145.35 173.00 140.00
C 173.00 135.00 173.00 130.00 173.00 125.00
C 186.13 123.94 202.75 127.69 206.78 141.22 C 210.80 154.76 201.42 175.50 219.00 180.00 Z"/>
</g>
<g fill="#3A98C4" fill-opacity="0.99" stroke="None">
<path d="
M 38.00 48.00 
C 38.00 71.15 37.59 96.02 38.00 119.00 C 38.41 141.98 36.90 167.65 38.00 190.00 C 39.10 212.35 35.03 239.44 39.01 259.99 C 42.99 280.55 64.27 283.23 80.78 289.22 C 97.29 295.21 123.45 298.00 142.00 298.00
C 144.15 297.83 145.62 296.14 148.00 298.00
C 148.31 298.24 149.00 298.00 149.00 298.00
C 146.67 226.87 148.67 154.58 148.00 83.00
C 145.34 83.93 141.95 82.19 140.00 82.00
C 133.09 82.00 126.67 81.25 120.00 81.00
C 117.24 80.89 114.07 80.25 112.00 80.00
C 99.18 79.74 80.16 74.47 69.02 69.98 C 57.89 65.48 42.41 59.23 39.00 47.00
C 38.89 47.35 38.05 47.77 38.00 48.00
M 76.00 195.00 
C 74.98 194.43 73.09 195.43 72.00 195.00
C 72.00 189.33 72.00 183.67 72.00 178.00
C 73.00 178.00 74.00 178.00 75.00 178.00
C 78.87 175.45 81.32 174.79 83.00 170.00
C 84.70 161.80 82.61 151.76 84.00 144.00
C 85.13 127.46 104.01 122.36 118.00 123.00
C 120.58 134.09 117.11 138.40 109.25 142.25 C 101.40 146.11 107.83 160.23 105.67 166.67 C 103.51 173.11 103.82 182.92 95.00 185.00
C 116.05 193.73 94.15 230.14 118.00 232.00
C 118.00 237.67 118.00 243.33 118.00 249.00
C 104.62 250.54 89.93 246.74 85.02 233.98 C 80.12 221.21 88.68 203.20 76.00 195.00 Z"/>
</g>
<g fill="#AFE2F1" fill-opacity="1.00" stroke="None">
<path d="
M 120.00 81.00 
C 117.85 80.69 114.84 80.06 112.00 80.00
C 114.07 80.25 117.24 80.89 120.00 81.00 Z"/>
</g>
<g fill="#F9FDFE" fill-opacity="1.00" stroke="None">
<path d="
M 84.00 144.00 
C 83.43 152.34 85.61 162.57 83.00 170.00
C 81.32 174.79 78.87 175.45 75.00 178.00
C 71.08 181.69 73.80 188.72 73.00 194.00
C 74.00 194.11 75.73 193.53 76.00 195.00
C 88.68 203.20 80.12 221.21 85.02 233.98 C 89.93 246.74 104.62 250.54 118.00 249.00
C 118.00 243.33 118.00 237.67 118.00 232.00
C 94.15 230.14 116.05 193.73 95.00 185.00
C 103.82 182.92 103.51 173.11 105.67 166.67 C 107.83 160.23 101.40 146.11 109.25 142.25 C 117.11 138.40 120.58 134.09 118.00 123.00
C 104.01 122.36 85.13 127.46 84.00 144.00 Z"/>
</g>
<g fill="#F9FDFE" fill-opacity="1.00" stroke="None">
<path d="
M 219.00 180.00 
C 201.42 175.50 210.80 154.76 206.78 141.22 C 202.75 127.69 186.13 123.94 173.00 125.00
C 173.00 130.00 173.00 135.00 173.00 140.00
C 194.90 145.35 175.29 177.44 195.00 188.00
C 174.52 195.92 196.88 231.57 173.00 234.00
C 173.00 239.00 173.00 244.00 173.00 249.00
C 186.88 251.33 201.76 245.11 206.22 232.22 C 210.69 219.34 201.00 196.87 219.00 195.00
C 219.00 190.00 219.00 185.00 219.00 180.00 Z"/>
</g>
<g fill="#D7F9FD" fill-opacity="1.00" stroke="None">
<path d="
M 83.00 170.00 
C 85.61 162.57 83.43 152.34 84.00 144.00
C 82.61 151.76 84.70 161.80 83.00 170.00 Z"/>
</g>
<g fill="#9DCEDF" fill-opacity="1.00" stroke="None">
<path d="
M 76.00 195.00 
C 75.73 193.53 74.00 194.11 73.00 194.00
C 73.80 188.72 71.08 181.69 75.00 178.00
C 74.00 178.00 73.00 178.00 72.00 178.00
C 72.00 183.67 72.00 189.33 72.00 195.00
C 73.09 195.43 74.98 194.43 76.00 195.00 Z"/>
</g>
<g fill="#4691B1" fill-opacity="0.49" stroke="None">
<path d="
M 142.00 298.00 
C 143.97 298.00 146.04 297.81 148.00 298.00
C 145.62 296.14 144.15 297.83 142.00 298.00 Z"/>
</g>
<g fill="#55B0D5" fill-opacity="0.16" stroke="None">
<path d="
M 155.00 298.00 
C 153.00 298.00 151.00 298.00 149.00 298.00
C 149.00 298.00 148.31 298.24 148.00 298.00
C 150.13 298.21 152.81 298.21 155.00 298.00 Z"/>
</g>
</svg>
