<svg xmlns="http://www.w3.org/2000/svg" xmlns:v="https://svgstorm.com"
viewBox = "0 0 512 512"
width="32px"
height="32px">
<g fill="None" fill-opacity="0.0" stroke="#000000" stroke-opacity="0.00" stroke-width="0.3"><path d="
M 0.00 512.00 
L 512.00 512.00
L 512.00 0.00
L 0.00 0.00
L 0.00 512.00
M 299.00 54.00 
C 299.45 76.65 299.00 99.35 299.00 122.00
C 299.00 133.67 299.00 145.33 299.00 157.00
C 299.00 172.13 301.15 189.04 299.00 204.00
C 348.03 183.56 409.01 199.15 448.75 231.25 C 488.48 263.36 509.02 317.91 503.00 368.00 C 496.98 418.09 469.29 457.51 425.92 483.92 C 382.56 510.34 316.18 509.84 273.30 483.70 C 230.42 457.55 199.99 416.03 197.00 366.00
C 179.32 367.12 157.59 367.06 140.00 367.00 C 122.41 366.94 102.21 365.13 86.33 362.67 C 70.45 360.21 53.07 356.62 39.78 351.22 C 26.48 345.82 9.60 340.58 8.00 325.00
C 5.79 303.52 8.00 280.61 8.00 259.00
C 8.00 247.33 8.00 235.67 8.00 224.00
C 8.00 201.33 8.00 178.67 8.00 156.00
C 8.00 144.67 8.00 133.33 8.00 122.00
C 8.00 98.75 5.63 74.11 8.00 51.00
C 10.14 30.12 35.48 26.03 53.02 20.02 C 70.57 14.02 97.42 10.97 118.02 9.02 C 138.63 7.08 170.62 7.94 191.22 9.78 C 211.82 11.62 238.58 14.20 256.67 20.33 C 274.77 26.45 298.57 32.27 299.00 54.00 Z"/>
</g>
<g fill="None" fill-opacity="0.0" stroke="#35718A" stroke-opacity="0.99" stroke-width="0.3"><path d="
M 8.00 51.00 
C 8.05 51.94 8.94 54.40 9.00 56.00
C 12.68 69.00 28.39 72.00 39.68 77.32 C 50.96 82.64 67.32 85.15 81.02 87.98 C 94.73 90.80 112.89 91.91 128.00 93.00 C 143.11 94.09 162.77 94.21 178.00 93.00 C 193.23 91.79 211.02 90.94 225.22 88.22 C 239.42 85.50 254.56 83.23 267.02 78.02 C 279.49 72.82 291.70 68.24 298.00 56.00
C 298.15 54.80 298.80 54.71 299.00 54.00
C 298.57 32.27 274.77 26.45 256.67 20.33 C 238.58 14.20 211.82 11.62 191.22 9.78 C 170.62 7.94 138.63 7.08 118.02 9.02 C 97.42 10.97 70.57 14.02 53.02 20.02 C 35.48 26.03 10.14 30.12 8.00 51.00 Z"/>
</g>
<g fill="None" fill-opacity="0.0" stroke="#4085A8" stroke-opacity="0.47" stroke-width="0.3"><path d="
M 8.00 122.00 
C 8.00 121.96 9.00 122.00 9.00 122.00
C 9.00 100.06 9.88 77.92 9.00 56.00
C 8.94 54.40 8.05 51.94 8.00 51.00
C 5.63 74.11 8.00 98.75 8.00 122.00 Z"/>
</g>
<g fill="None" fill-opacity="0.0" stroke="#4084A8" stroke-opacity="0.67" stroke-width="0.3"><path d="
M 298.00 56.00 
C 295.34 77.60 301.30 100.50 298.00 122.00
C 298.14 121.77 299.00 122.00 299.00 122.00
C 299.00 99.35 299.45 76.65 299.00 54.00
C 298.80 54.71 298.15 54.80 298.00 56.00 Z"/>
</g>
<g fill="None" fill-opacity="0.0" stroke="#4184A8" stroke-opacity="1.00" stroke-width="0.3"><path d="
M 9.00 122.00 
C 9.00 122.50 9.00 123.50 9.00 124.00
C 16.99 140.30 34.26 143.55 50.68 149.32 C 67.10 155.09 88.09 157.57 107.07 159.93 C 126.06 162.28 152.82 162.00 173.00 162.00
C 175.42 161.77 178.91 161.00 182.00 161.00
C 201.29 161.00 230.68 157.11 248.01 152.01 C 265.33 146.91 289.53 142.51 297.00 125.00
C 297.50 123.83 297.80 123.31 298.00 122.00
C 301.30 100.50 295.34 77.60 298.00 56.00
C 291.70 68.24 279.49 72.82 267.02 78.02 C 254.56 83.23 239.42 85.50 225.22 88.22 C 211.02 90.94 193.23 91.79 178.00 93.00 C 162.77 94.21 143.11 94.09 128.00 93.00 C 112.89 91.91 94.73 90.80 81.02 87.98 C 67.32 85.15 50.96 82.64 39.68 77.32 C 28.39 72.00 12.68 69.00 9.00 56.00
C 9.88 77.92 9.00 100.06 9.00 122.00 Z"/>
</g>
<g fill="None" fill-opacity="0.0" stroke="#5DC097" stroke-opacity="0.71" stroke-width="0.3"><path d="
M 8.00 156.00 
C 8.00 155.96 9.00 156.00 9.00 156.00
C 9.00 145.33 9.00 134.67 9.00 124.00
C 9.00 123.50 9.00 122.50 9.00 122.00
C 9.00 122.00 8.00 121.96 8.00 122.00
C 8.00 133.33 8.00 144.67 8.00 156.00 Z"/>
</g>
<g fill="None" fill-opacity="0.0" stroke="#60C596" stroke-opacity="0.89" stroke-width="0.3"><path d="
M 297.00 125.00 
C 296.40 134.40 298.00 146.75 298.00 157.00
C 298.34 156.77 299.00 157.00 299.00 157.00
C 299.00 145.33 299.00 133.67 299.00 122.00
C 299.00 122.00 298.14 121.77 298.00 122.00
C 297.80 123.31 297.50 123.83 297.00 125.00 Z"/>
</g>
<g fill="None" fill-opacity="0.0" stroke="#6CDE8E" stroke-opacity="1.00" stroke-width="0.3"><path d="
M 9.00 156.00 
C 9.00 157.00 9.00 158.00 9.00 159.00
C 14.08 174.01 32.48 176.12 46.02 181.98 C 59.57 187.83 79.79 190.38 96.01 192.99 C 112.23 195.60 135.35 196.05 153.00 196.00 C 170.65 195.95 194.47 195.67 211.00 193.00 C 227.53 190.33 246.30 188.17 260.67 182.67 C 275.05 177.18 291.02 173.23 298.00 159.00
C 298.00 158.50 298.00 157.50 298.00 157.00
C 298.00 146.75 296.40 134.40 297.00 125.00
C 289.53 142.51 265.33 146.91 248.01 152.01 C 230.68 157.11 201.29 161.00 182.00 161.00
C 179.58 161.23 176.09 162.00 173.00 162.00
C 152.82 162.00 126.06 162.28 107.07 159.93 C 88.09 157.57 67.10 155.09 50.68 149.32 C 34.26 143.55 16.99 140.30 9.00 124.00
C 9.00 134.67 9.00 145.33 9.00 156.00 Z"/>
</g>
<g fill="None" fill-opacity="0.0" stroke="#4085A8" stroke-opacity="0.47" stroke-width="0.3"><path d="
M 8.00 224.00 
C 8.00 223.96 9.00 224.00 9.00 224.00
C 5.85 203.44 9.00 179.84 9.00 159.00
C 9.00 158.00 9.00 157.00 9.00 156.00
C 9.00 156.00 8.00 155.96 8.00 156.00
C 8.00 178.67 8.00 201.33 8.00 224.00 Z"/>
</g>
<g fill="None" fill-opacity="0.0" stroke="#4084A8" stroke-opacity="0.67" stroke-width="0.3"><path d="
M 298.00 159.00 
C 298.00 166.34 297.18 174.77 298.00 182.00 C 298.82 189.23 295.81 198.16 298.00 205.00
C 298.30 204.79 298.95 204.35 299.00 204.00
C 301.15 189.04 299.00 172.13 299.00 157.00
C 299.00 157.00 298.34 156.77 298.00 157.00
C 298.00 157.50 298.00 158.50 298.00 159.00 Z"/>
</g>
<g fill="None" fill-opacity="0.0" stroke="#4184A8" stroke-opacity="1.00" stroke-width="0.3"><path d="
M 9.00 224.00 
C 9.19 225.23 9.53 225.86 10.00 227.00
C 13.53 235.58 20.82 239.70 29.23 243.77 C 37.64 247.85 47.06 250.83 56.67 253.33 C 66.28 255.82 76.65 258.24 87.07 259.93 C 97.50 261.61 109.98 262.15 121.00 263.00 C 132.02 263.85 145.60 264.75 157.00 264.00 C 168.40 263.25 182.31 265.63 193.00 263.00 C 203.69 260.37 216.29 263.59 226.00 259.00
C 235.28 246.52 245.73 237.66 257.25 227.25 C 268.76 216.83 285.68 213.49 298.00 205.00
C 295.81 198.16 298.82 189.23 298.00 182.00 C 297.18 174.77 298.00 166.34 298.00 159.00
C 291.02 173.23 275.05 177.18 260.67 182.67 C 246.30 188.17 227.53 190.33 211.00 193.00 C 194.47 195.67 170.65 195.95 153.00 196.00 C 135.35 196.05 112.23 195.60 96.01 192.99 C 79.79 190.38 59.57 187.83 46.02 181.98 C 32.48 176.12 14.08 174.01 9.00 159.00
C 9.00 179.84 5.85 203.44 9.00 224.00 Z"/>
</g>
<g fill="None" fill-opacity="0.0" stroke="#57B29B" stroke-opacity="1.00" stroke-width="0.3"><path d="
M 173.00 162.00 
C 176.09 162.00 179.58 161.23 182.00 161.00
C 178.91 161.00 175.42 161.77 173.00 162.00 Z"/>
</g>
<g fill="None" fill-opacity="0.0" stroke="#35718A" stroke-opacity="0.99" stroke-width="0.3"><path d="
M 299.00 204.00 
C 298.95 204.35 298.30 204.79 298.00 205.00
C 285.68 213.49 268.76 216.83 257.25 227.25 C 245.73 237.66 235.28 246.52 226.00 259.00
C 217.60 270.30 210.93 282.96 206.00 296.00
C 197.50 318.46 195.54 341.56 197.00 366.00
C 199.99 416.03 230.42 457.55 273.30 483.70 C 316.18 509.84 382.56 510.34 425.92 483.92 C 469.29 457.51 496.98 418.09 503.00 368.00 C 509.02 317.91 488.48 263.36 448.75 231.25 C 409.01 199.15 348.03 183.56 299.00 204.00
M 276.00 409.00 
C 273.49 409.36 271.48 409.40 269.00 409.00
C 257.16 408.41 250.81 400.72 243.25 392.75 C 235.68 384.78 238.97 362.51 250.67 367.33 C 262.37 372.15 254.14 389.97 268.22 391.78 C 282.31 393.58 291.48 385.69 290.00 372.00 C 288.52 358.31 272.76 359.46 262.98 357.02 C 253.20 354.59 245.26 346.48 241.22 336.78 C 237.19 327.07 238.56 312.49 245.75 303.75 C 252.95 295.02 263.01 290.09 274.00 290.00 C 284.99 289.91 295.20 297.11 301.25 304.75 C 307.30 312.39 311.59 331.78 298.97 332.97 C 286.36 334.17 291.91 312.31 280.77 309.23 C 269.63 306.15 258.22 308.86 256.02 322.02 C 253.83 335.19 267.10 341.82 278.02 341.98 C 288.95 342.13 297.30 349.99 302.92 359.08 C 308.54 368.17 308.68 383.29 302.69 392.69 C 296.71 402.10 287.11 408.62 276.00 409.00
M 392.00 321.00 
C 394.74 337.85 394.03 360.17 392.00 377.00
C 391.89 382.56 391.15 387.38 388.00 392.00
C 400.99 399.62 383.90 418.62 377.00 405.00
C 371.73 405.33 367.71 410.03 362.00 409.00
C 359.44 409.42 357.51 409.41 355.00 409.00
C 326.59 407.59 323.81 379.71 324.00 357.00 C 324.19 334.29 321.08 304.69 343.70 293.70 C 366.31 282.70 390.75 297.89 392.00 321.00
M 427.00 392.00 
C 435.79 392.80 446.05 390.49 454.00 393.00
C 458.98 394.57 463.22 399.32 460.02 405.02 C 456.83 410.73 449.93 409.92 444.00 410.00 C 438.07 410.08 428.87 409.69 423.00 410.00 C 417.13 410.31 410.33 408.79 410.01 401.99 C 409.69 395.20 410.12 387.88 410.00 381.00 C 409.88 374.12 410.03 366.89 410.00 360.00 C 409.97 353.11 409.95 345.82 410.00 339.00 C 410.05 332.18 409.84 324.63 410.00 318.00 C 410.16 311.37 409.61 303.20 410.00 297.00 C 410.39 290.80 417.62 287.89 422.69 291.31 C 427.77 294.72 427.02 301.88 427.00 308.00 C 426.98 314.12 426.77 322.57 427.00 329.00 C 427.23 335.43 426.37 343.63 427.00 350.00 C 427.63 356.37 425.54 365.12 427.00 371.00 C 428.46 376.88 423.75 387.35 427.00 392.00 Z"/>
</g>
<g fill="None" fill-opacity="0.0" stroke="#5CBE97" stroke-opacity="0.71" stroke-width="0.3"><path d="
M 8.00 259.00 
C 8.00 258.96 9.00 259.00 9.00 259.00
C 9.00 248.77 10.60 236.32 10.00 227.00
C 9.53 225.86 9.19 225.23 9.00 224.00
C 9.00 224.00 8.00 223.96 8.00 224.00
C 8.00 235.67 8.00 247.33 8.00 259.00 Z"/>
</g>
<g fill="None" fill-opacity="0.0" stroke="#6CDE8E" stroke-opacity="1.00" stroke-width="0.3"><path d="
M 9.00 259.00 
C 9.00 259.50 9.00 260.50 9.00 261.00
C 18.53 280.44 40.59 282.31 60.07 288.93 C 79.56 295.55 107.39 295.92 130.00 298.00 C 152.61 300.08 183.01 298.24 206.00 296.00
C 210.93 282.96 217.60 270.30 226.00 259.00
C 216.29 263.59 203.69 260.37 193.00 263.00 C 182.31 265.63 168.40 263.25 157.00 264.00 C 145.60 264.75 132.02 263.85 121.00 263.00 C 109.98 262.15 97.50 261.61 87.07 259.93 C 76.65 258.24 66.28 255.82 56.67 253.33 C 47.06 250.83 37.64 247.85 29.23 243.77 C 20.82 239.70 13.53 235.58 10.00 227.00
C 10.60 236.32 9.00 248.77 9.00 259.00 Z"/>
</g>
<g fill="None" fill-opacity="0.0" stroke="#4085A9" stroke-opacity="0.47" stroke-width="0.3"><path d="
M 8.00 325.00 
C 7.88 304.60 9.00 282.16 9.00 261.00
C 9.00 260.50 9.00 259.50 9.00 259.00
C 9.00 259.00 8.00 258.96 8.00 259.00
C 8.00 280.61 5.79 303.52 8.00 325.00 Z"/>
</g>
<g fill="None" fill-opacity="0.0" stroke="#4184A8" stroke-opacity="0.99" stroke-width="0.3"><path d="
M 8.00 325.00 
C 9.60 340.58 26.48 345.82 39.78 351.22 C 53.07 356.62 70.45 360.21 86.33 362.67 C 102.21 365.13 122.41 366.94 140.00 367.00 C 157.59 367.06 179.32 367.12 197.00 366.00
C 195.54 341.56 197.50 318.46 206.00 296.00
C 183.01 298.24 152.61 300.08 130.00 298.00 C 107.39 295.92 79.56 295.55 60.07 288.93 C 40.59 282.31 18.53 280.44 9.00 261.00
C 9.00 282.16 7.88 304.60 8.00 325.00 Z"/>
</g>
<g fill="None" fill-opacity="0.0" stroke="#FBFCFC" stroke-opacity="1.00" stroke-width="0.3"><path d="
M 269.00 409.00 
C 271.30 409.11 273.69 409.08 276.00 409.00
C 287.11 408.62 296.71 402.10 302.69 392.69 C 308.68 383.29 308.54 368.17 302.92 359.08 C 297.30 349.99 288.95 342.13 278.02 341.98 C 267.10 341.82 253.83 335.19 256.02 322.02 C 258.22 308.86 269.63 306.15 280.77 309.23 C 291.91 312.31 286.36 334.17 298.97 332.97 C 311.59 331.78 307.30 312.39 301.25 304.75 C 295.20 297.11 284.99 289.91 274.00 290.00 C 263.01 290.09 252.95 295.02 245.75 303.75 C 238.56 312.49 237.19 327.07 241.22 336.78 C 245.26 346.48 253.20 354.59 262.98 357.02 C 272.76 359.46 288.52 358.31 290.00 372.00 C 291.48 385.69 282.31 393.58 268.22 391.78 C 254.14 389.97 262.37 372.15 250.67 367.33 C 238.97 362.51 235.68 384.78 243.25 392.75 C 250.81 400.72 257.16 408.41 269.00 409.00 Z"/>
</g>
<g fill="None" fill-opacity="0.0" stroke="#FCFDFD" stroke-opacity="1.00" stroke-width="0.3"><path d="
M 355.00 409.00 
C 357.29 409.11 359.71 409.11 362.00 409.00
C 367.71 410.03 371.73 405.33 377.00 405.00
C 383.90 418.62 400.99 399.62 388.00 392.00
C 391.15 387.38 391.89 382.56 392.00 377.00
C 392.37 358.50 393.00 339.47 392.00 321.00
C 390.75 297.89 366.31 282.70 343.70 293.70 C 321.08 304.69 324.19 334.29 324.00 357.00 C 323.81 379.71 326.59 407.59 355.00 409.00
M 375.00 322.00 
C 378.51 337.83 374.45 356.35 376.00 373.00
C 375.17 372.59 374.13 372.03 374.00 371.00
C 368.32 367.51 361.14 365.12 358.68 373.68 C 356.22 382.24 365.41 383.29 366.00 391.00
C 348.52 397.78 338.21 380.60 341.00 365.00 C 343.79 349.40 336.63 329.01 343.92 314.92 C 351.22 300.84 374.72 307.45 375.00 322.00 Z"/>
</g>
<g fill="None" fill-opacity="0.0" stroke="#FAFBFC" stroke-opacity="1.00" stroke-width="0.3"><path d="
M 454.00 393.00 
C 450.07 392.30 443.70 393.86 440.00 393.00 C 436.30 392.14 429.14 395.06 427.00 392.00
C 423.75 387.35 428.46 376.88 427.00 371.00 C 425.54 365.12 427.63 356.37 427.00 350.00 C 426.37 343.63 427.23 335.43 427.00 329.00 C 426.77 322.57 426.98 314.12 427.00 308.00 C 427.02 301.88 427.77 294.72 422.69 291.31 C 417.62 287.89 410.39 290.80 410.00 297.00 C 409.61 303.20 410.16 311.37 410.00 318.00 C 409.84 324.63 410.05 332.18 410.00 339.00 C 409.95 345.82 409.97 353.11 410.00 360.00 C 410.03 366.89 409.88 374.12 410.00 381.00 C 410.12 387.88 409.69 395.20 410.01 401.99 C 410.33 408.79 417.13 410.31 423.00 410.00 C 428.87 409.69 438.07 410.08 444.00 410.00 C 449.93 409.92 456.83 410.73 460.02 405.02 C 463.22 399.32 458.98 394.57 454.00 393.00 Z"/>
</g>
<g fill="None" fill-opacity="0.0" stroke="#37728B" stroke-opacity="1.00" stroke-width="0.3"><path d="
M 374.00 371.00 
C 372.84 364.29 376.28 354.80 375.00 347.00 C 373.72 339.20 375.82 329.95 375.00 322.00
C 374.72 307.45 351.22 300.84 343.92 314.92 C 336.63 329.01 343.79 349.40 341.00 365.00 C 338.21 380.60 348.52 397.78 366.00 391.00
C 365.41 383.29 356.22 382.24 358.68 373.68 C 361.14 365.12 368.32 367.51 374.00 371.00 Z"/>
</g>
<g fill="None" fill-opacity="0.0" stroke="#9FBCC7" stroke-opacity="1.00" stroke-width="0.3"><path d="
M 392.00 377.00 
C 394.03 360.17 394.74 337.85 392.00 321.00
C 393.00 339.47 392.37 358.50 392.00 377.00 Z"/>
</g>
<g fill="None" fill-opacity="0.0" stroke="#A2BDC8" stroke-opacity="1.00" stroke-width="0.3"><path d="
M 374.00 371.00 
C 374.13 372.03 375.17 372.59 376.00 373.00
C 374.45 356.35 378.51 337.83 375.00 322.00
C 375.82 329.95 373.72 339.20 375.00 347.00 C 376.28 354.80 372.84 364.29 374.00 371.00 Z"/>
</g>
<g fill="None" fill-opacity="0.0" stroke="#91B2C0" stroke-opacity="1.00" stroke-width="0.3"><path d="
M 454.00 393.00 
C 446.05 390.49 435.79 392.80 427.00 392.00
C 429.14 395.06 436.30 392.14 440.00 393.00 C 443.70 393.86 450.07 392.30 454.00 393.00 Z"/>
</g>
<g fill="None" fill-opacity="0.0" stroke="#9CB9C5" stroke-opacity="1.00" stroke-width="0.3"><path d="
M 276.00 409.00 
C 273.69 409.08 271.30 409.11 269.00 409.00
C 271.48 409.40 273.49 409.36 276.00 409.00 Z"/>
</g>
<g fill="None" fill-opacity="0.0" stroke="#9DBAC6" stroke-opacity="1.00" stroke-width="0.3"><path d="
M 362.00 409.00 
C 359.71 409.11 357.29 409.11 355.00 409.00
C 357.51 409.41 359.44 409.42 362.00 409.00 Z"/>
</g>
<g fill="#000000" fill-opacity="0.00" stroke="None">
<path d="
M 0.00 512.00 
L 512.00 512.00
L 512.00 0.00
L 0.00 0.00
L 0.00 512.00
M 299.00 54.00 
C 299.45 76.65 299.00 99.35 299.00 122.00
C 299.00 133.67 299.00 145.33 299.00 157.00
C 299.00 172.13 301.15 189.04 299.00 204.00
C 348.03 183.56 409.01 199.15 448.75 231.25 C 488.48 263.36 509.02 317.91 503.00 368.00 C 496.98 418.09 469.29 457.51 425.92 483.92 C 382.56 510.34 316.18 509.84 273.30 483.70 C 230.42 457.55 199.99 416.03 197.00 366.00
C 179.32 367.12 157.59 367.06 140.00 367.00 C 122.41 366.94 102.21 365.13 86.33 362.67 C 70.45 360.21 53.07 356.62 39.78 351.22 C 26.48 345.82 9.60 340.58 8.00 325.00
C 5.79 303.52 8.00 280.61 8.00 259.00
C 8.00 247.33 8.00 235.67 8.00 224.00
C 8.00 201.33 8.00 178.67 8.00 156.00
C 8.00 144.67 8.00 133.33 8.00 122.00
C 8.00 98.75 5.63 74.11 8.00 51.00
C 10.14 30.12 35.48 26.03 53.02 20.02 C 70.57 14.02 97.42 10.97 118.02 9.02 C 138.63 7.08 170.62 7.94 191.22 9.78 C 211.82 11.62 238.58 14.20 256.67 20.33 C 274.77 26.45 298.57 32.27 299.00 54.00 Z"/>
</g>
<g fill="#35718A" fill-opacity="0.99" stroke="None">
<path d="
M 8.00 51.00 
C 8.05 51.94 8.94 54.40 9.00 56.00
C 12.68 69.00 28.39 72.00 39.68 77.32 C 50.96 82.64 67.32 85.15 81.02 87.98 C 94.73 90.80 112.89 91.91 128.00 93.00 C 143.11 94.09 162.77 94.21 178.00 93.00 C 193.23 91.79 211.02 90.94 225.22 88.22 C 239.42 85.50 254.56 83.23 267.02 78.02 C 279.49 72.82 291.70 68.24 298.00 56.00
C 298.15 54.80 298.80 54.71 299.00 54.00
C 298.57 32.27 274.77 26.45 256.67 20.33 C 238.58 14.20 211.82 11.62 191.22 9.78 C 170.62 7.94 138.63 7.08 118.02 9.02 C 97.42 10.97 70.57 14.02 53.02 20.02 C 35.48 26.03 10.14 30.12 8.00 51.00 Z"/>
</g>
<g fill="#4085A8" fill-opacity="0.47" stroke="None">
<path d="
M 8.00 122.00 
C 8.00 121.96 9.00 122.00 9.00 122.00
C 9.00 100.06 9.88 77.92 9.00 56.00
C 8.94 54.40 8.05 51.94 8.00 51.00
C 5.63 74.11 8.00 98.75 8.00 122.00 Z"/>
</g>
<g fill="#4084A8" fill-opacity="0.67" stroke="None">
<path d="
M 298.00 56.00 
C 295.34 77.60 301.30 100.50 298.00 122.00
C 298.14 121.77 299.00 122.00 299.00 122.00
C 299.00 99.35 299.45 76.65 299.00 54.00
C 298.80 54.71 298.15 54.80 298.00 56.00 Z"/>
</g>
<g fill="#4184A8" fill-opacity="1.00" stroke="None">
<path d="
M 9.00 122.00 
C 9.00 122.50 9.00 123.50 9.00 124.00
C 16.99 140.30 34.26 143.55 50.68 149.32 C 67.10 155.09 88.09 157.57 107.07 159.93 C 126.06 162.28 152.82 162.00 173.00 162.00
C 175.42 161.77 178.91 161.00 182.00 161.00
C 201.29 161.00 230.68 157.11 248.01 152.01 C 265.33 146.91 289.53 142.51 297.00 125.00
C 297.50 123.83 297.80 123.31 298.00 122.00
C 301.30 100.50 295.34 77.60 298.00 56.00
C 291.70 68.24 279.49 72.82 267.02 78.02 C 254.56 83.23 239.42 85.50 225.22 88.22 C 211.02 90.94 193.23 91.79 178.00 93.00 C 162.77 94.21 143.11 94.09 128.00 93.00 C 112.89 91.91 94.73 90.80 81.02 87.98 C 67.32 85.15 50.96 82.64 39.68 77.32 C 28.39 72.00 12.68 69.00 9.00 56.00
C 9.88 77.92 9.00 100.06 9.00 122.00 Z"/>
</g>
<g fill="#5DC097" fill-opacity="0.71" stroke="None">
<path d="
M 8.00 156.00 
C 8.00 155.96 9.00 156.00 9.00 156.00
C 9.00 145.33 9.00 134.67 9.00 124.00
C 9.00 123.50 9.00 122.50 9.00 122.00
C 9.00 122.00 8.00 121.96 8.00 122.00
C 8.00 133.33 8.00 144.67 8.00 156.00 Z"/>
</g>
<g fill="#60C596" fill-opacity="0.89" stroke="None">
<path d="
M 297.00 125.00 
C 296.40 134.40 298.00 146.75 298.00 157.00
C 298.34 156.77 299.00 157.00 299.00 157.00
C 299.00 145.33 299.00 133.67 299.00 122.00
C 299.00 122.00 298.14 121.77 298.00 122.00
C 297.80 123.31 297.50 123.83 297.00 125.00 Z"/>
</g>
<g fill="#6CDE8E" fill-opacity="1.00" stroke="None">
<path d="
M 9.00 156.00 
C 9.00 157.00 9.00 158.00 9.00 159.00
C 14.08 174.01 32.48 176.12 46.02 181.98 C 59.57 187.83 79.79 190.38 96.01 192.99 C 112.23 195.60 135.35 196.05 153.00 196.00 C 170.65 195.95 194.47 195.67 211.00 193.00 C 227.53 190.33 246.30 188.17 260.67 182.67 C 275.05 177.18 291.02 173.23 298.00 159.00
C 298.00 158.50 298.00 157.50 298.00 157.00
C 298.00 146.75 296.40 134.40 297.00 125.00
C 289.53 142.51 265.33 146.91 248.01 152.01 C 230.68 157.11 201.29 161.00 182.00 161.00
C 179.58 161.23 176.09 162.00 173.00 162.00
C 152.82 162.00 126.06 162.28 107.07 159.93 C 88.09 157.57 67.10 155.09 50.68 149.32 C 34.26 143.55 16.99 140.30 9.00 124.00
C 9.00 134.67 9.00 145.33 9.00 156.00 Z"/>
</g>
<g fill="#4085A8" fill-opacity="0.47" stroke="None">
<path d="
M 8.00 224.00 
C 8.00 223.96 9.00 224.00 9.00 224.00
C 5.85 203.44 9.00 179.84 9.00 159.00
C 9.00 158.00 9.00 157.00 9.00 156.00
C 9.00 156.00 8.00 155.96 8.00 156.00
C 8.00 178.67 8.00 201.33 8.00 224.00 Z"/>
</g>
<g fill="#4084A8" fill-opacity="0.67" stroke="None">
<path d="
M 298.00 159.00 
C 298.00 166.34 297.18 174.77 298.00 182.00 C 298.82 189.23 295.81 198.16 298.00 205.00
C 298.30 204.79 298.95 204.35 299.00 204.00
C 301.15 189.04 299.00 172.13 299.00 157.00
C 299.00 157.00 298.34 156.77 298.00 157.00
C 298.00 157.50 298.00 158.50 298.00 159.00 Z"/>
</g>
<g fill="#4184A8" fill-opacity="1.00" stroke="None">
<path d="
M 9.00 224.00 
C 9.19 225.23 9.53 225.86 10.00 227.00
C 13.53 235.58 20.82 239.70 29.23 243.77 C 37.64 247.85 47.06 250.83 56.67 253.33 C 66.28 255.82 76.65 258.24 87.07 259.93 C 97.50 261.61 109.98 262.15 121.00 263.00 C 132.02 263.85 145.60 264.75 157.00 264.00 C 168.40 263.25 182.31 265.63 193.00 263.00 C 203.69 260.37 216.29 263.59 226.00 259.00
C 235.28 246.52 245.73 237.66 257.25 227.25 C 268.76 216.83 285.68 213.49 298.00 205.00
C 295.81 198.16 298.82 189.23 298.00 182.00 C 297.18 174.77 298.00 166.34 298.00 159.00
C 291.02 173.23 275.05 177.18 260.67 182.67 C 246.30 188.17 227.53 190.33 211.00 193.00 C 194.47 195.67 170.65 195.95 153.00 196.00 C 135.35 196.05 112.23 195.60 96.01 192.99 C 79.79 190.38 59.57 187.83 46.02 181.98 C 32.48 176.12 14.08 174.01 9.00 159.00
C 9.00 179.84 5.85 203.44 9.00 224.00 Z"/>
</g>
<g fill="#57B29B" fill-opacity="1.00" stroke="None">
<path d="
M 173.00 162.00 
C 176.09 162.00 179.58 161.23 182.00 161.00
C 178.91 161.00 175.42 161.77 173.00 162.00 Z"/>
</g>
<g fill="#35718A" fill-opacity="0.99" stroke="None">
<path d="
M 299.00 204.00 
C 298.95 204.35 298.30 204.79 298.00 205.00
C 285.68 213.49 268.76 216.83 257.25 227.25 C 245.73 237.66 235.28 246.52 226.00 259.00
C 217.60 270.30 210.93 282.96 206.00 296.00
C 197.50 318.46 195.54 341.56 197.00 366.00
C 199.99 416.03 230.42 457.55 273.30 483.70 C 316.18 509.84 382.56 510.34 425.92 483.92 C 469.29 457.51 496.98 418.09 503.00 368.00 C 509.02 317.91 488.48 263.36 448.75 231.25 C 409.01 199.15 348.03 183.56 299.00 204.00
M 276.00 409.00 
C 273.49 409.36 271.48 409.40 269.00 409.00
C 257.16 408.41 250.81 400.72 243.25 392.75 C 235.68 384.78 238.97 362.51 250.67 367.33 C 262.37 372.15 254.14 389.97 268.22 391.78 C 282.31 393.58 291.48 385.69 290.00 372.00 C 288.52 358.31 272.76 359.46 262.98 357.02 C 253.20 354.59 245.26 346.48 241.22 336.78 C 237.19 327.07 238.56 312.49 245.75 303.75 C 252.95 295.02 263.01 290.09 274.00 290.00 C 284.99 289.91 295.20 297.11 301.25 304.75 C 307.30 312.39 311.59 331.78 298.97 332.97 C 286.36 334.17 291.91 312.31 280.77 309.23 C 269.63 306.15 258.22 308.86 256.02 322.02 C 253.83 335.19 267.10 341.82 278.02 341.98 C 288.95 342.13 297.30 349.99 302.92 359.08 C 308.54 368.17 308.68 383.29 302.69 392.69 C 296.71 402.10 287.11 408.62 276.00 409.00
M 392.00 321.00 
C 394.74 337.85 394.03 360.17 392.00 377.00
C 391.89 382.56 391.15 387.38 388.00 392.00
C 400.99 399.62 383.90 418.62 377.00 405.00
C 371.73 405.33 367.71 410.03 362.00 409.00
C 359.44 409.42 357.51 409.41 355.00 409.00
C 326.59 407.59 323.81 379.71 324.00 357.00 C 324.19 334.29 321.08 304.69 343.70 293.70 C 366.31 282.70 390.75 297.89 392.00 321.00
M 427.00 392.00 
C 435.79 392.80 446.05 390.49 454.00 393.00
C 458.98 394.57 463.22 399.32 460.02 405.02 C 456.83 410.73 449.93 409.92 444.00 410.00 C 438.07 410.08 428.87 409.69 423.00 410.00 C 417.13 410.31 410.33 408.79 410.01 401.99 C 409.69 395.20 410.12 387.88 410.00 381.00 C 409.88 374.12 410.03 366.89 410.00 360.00 C 409.97 353.11 409.95 345.82 410.00 339.00 C 410.05 332.18 409.84 324.63 410.00 318.00 C 410.16 311.37 409.61 303.20 410.00 297.00 C 410.39 290.80 417.62 287.89 422.69 291.31 C 427.77 294.72 427.02 301.88 427.00 308.00 C 426.98 314.12 426.77 322.57 427.00 329.00 C 427.23 335.43 426.37 343.63 427.00 350.00 C 427.63 356.37 425.54 365.12 427.00 371.00 C 428.46 376.88 423.75 387.35 427.00 392.00 Z"/>
</g>
<g fill="#5CBE97" fill-opacity="0.71" stroke="None">
<path d="
M 8.00 259.00 
C 8.00 258.96 9.00 259.00 9.00 259.00
C 9.00 248.77 10.60 236.32 10.00 227.00
C 9.53 225.86 9.19 225.23 9.00 224.00
C 9.00 224.00 8.00 223.96 8.00 224.00
C 8.00 235.67 8.00 247.33 8.00 259.00 Z"/>
</g>
<g fill="#6CDE8E" fill-opacity="1.00" stroke="None">
<path d="
M 9.00 259.00 
C 9.00 259.50 9.00 260.50 9.00 261.00
C 18.53 280.44 40.59 282.31 60.07 288.93 C 79.56 295.55 107.39 295.92 130.00 298.00 C 152.61 300.08 183.01 298.24 206.00 296.00
C 210.93 282.96 217.60 270.30 226.00 259.00
C 216.29 263.59 203.69 260.37 193.00 263.00 C 182.31 265.63 168.40 263.25 157.00 264.00 C 145.60 264.75 132.02 263.85 121.00 263.00 C 109.98 262.15 97.50 261.61 87.07 259.93 C 76.65 258.24 66.28 255.82 56.67 253.33 C 47.06 250.83 37.64 247.85 29.23 243.77 C 20.82 239.70 13.53 235.58 10.00 227.00
C 10.60 236.32 9.00 248.77 9.00 259.00 Z"/>
</g>
<g fill="#4085A9" fill-opacity="0.47" stroke="None">
<path d="
M 8.00 325.00 
C 7.88 304.60 9.00 282.16 9.00 261.00
C 9.00 260.50 9.00 259.50 9.00 259.00
C 9.00 259.00 8.00 258.96 8.00 259.00
C 8.00 280.61 5.79 303.52 8.00 325.00 Z"/>
</g>
<g fill="#4184A8" fill-opacity="0.99" stroke="None">
<path d="
M 8.00 325.00 
C 9.60 340.58 26.48 345.82 39.78 351.22 C 53.07 356.62 70.45 360.21 86.33 362.67 C 102.21 365.13 122.41 366.94 140.00 367.00 C 157.59 367.06 179.32 367.12 197.00 366.00
C 195.54 341.56 197.50 318.46 206.00 296.00
C 183.01 298.24 152.61 300.08 130.00 298.00 C 107.39 295.92 79.56 295.55 60.07 288.93 C 40.59 282.31 18.53 280.44 9.00 261.00
C 9.00 282.16 7.88 304.60 8.00 325.00 Z"/>
</g>
<g fill="#FBFCFC" fill-opacity="1.00" stroke="None">
<path d="
M 269.00 409.00 
C 271.30 409.11 273.69 409.08 276.00 409.00
C 287.11 408.62 296.71 402.10 302.69 392.69 C 308.68 383.29 308.54 368.17 302.92 359.08 C 297.30 349.99 288.95 342.13 278.02 341.98 C 267.10 341.82 253.83 335.19 256.02 322.02 C 258.22 308.86 269.63 306.15 280.77 309.23 C 291.91 312.31 286.36 334.17 298.97 332.97 C 311.59 331.78 307.30 312.39 301.25 304.75 C 295.20 297.11 284.99 289.91 274.00 290.00 C 263.01 290.09 252.95 295.02 245.75 303.75 C 238.56 312.49 237.19 327.07 241.22 336.78 C 245.26 346.48 253.20 354.59 262.98 357.02 C 272.76 359.46 288.52 358.31 290.00 372.00 C 291.48 385.69 282.31 393.58 268.22 391.78 C 254.14 389.97 262.37 372.15 250.67 367.33 C 238.97 362.51 235.68 384.78 243.25 392.75 C 250.81 400.72 257.16 408.41 269.00 409.00 Z"/>
</g>
<g fill="#FCFDFD" fill-opacity="1.00" stroke="None">
<path d="
M 355.00 409.00 
C 357.29 409.11 359.71 409.11 362.00 409.00
C 367.71 410.03 371.73 405.33 377.00 405.00
C 383.90 418.62 400.99 399.62 388.00 392.00
C 391.15 387.38 391.89 382.56 392.00 377.00
C 392.37 358.50 393.00 339.47 392.00 321.00
C 390.75 297.89 366.31 282.70 343.70 293.70 C 321.08 304.69 324.19 334.29 324.00 357.00 C 323.81 379.71 326.59 407.59 355.00 409.00
M 375.00 322.00 
C 378.51 337.83 374.45 356.35 376.00 373.00
C 375.17 372.59 374.13 372.03 374.00 371.00
C 368.32 367.51 361.14 365.12 358.68 373.68 C 356.22 382.24 365.41 383.29 366.00 391.00
C 348.52 397.78 338.21 380.60 341.00 365.00 C 343.79 349.40 336.63 329.01 343.92 314.92 C 351.22 300.84 374.72 307.45 375.00 322.00 Z"/>
</g>
<g fill="#FAFBFC" fill-opacity="1.00" stroke="None">
<path d="
M 454.00 393.00 
C 450.07 392.30 443.70 393.86 440.00 393.00 C 436.30 392.14 429.14 395.06 427.00 392.00
C 423.75 387.35 428.46 376.88 427.00 371.00 C 425.54 365.12 427.63 356.37 427.00 350.00 C 426.37 343.63 427.23 335.43 427.00 329.00 C 426.77 322.57 426.98 314.12 427.00 308.00 C 427.02 301.88 427.77 294.72 422.69 291.31 C 417.62 287.89 410.39 290.80 410.00 297.00 C 409.61 303.20 410.16 311.37 410.00 318.00 C 409.84 324.63 410.05 332.18 410.00 339.00 C 409.95 345.82 409.97 353.11 410.00 360.00 C 410.03 366.89 409.88 374.12 410.00 381.00 C 410.12 387.88 409.69 395.20 410.01 401.99 C 410.33 408.79 417.13 410.31 423.00 410.00 C 428.87 409.69 438.07 410.08 444.00 410.00 C 449.93 409.92 456.83 410.73 460.02 405.02 C 463.22 399.32 458.98 394.57 454.00 393.00 Z"/>
</g>
<g fill="#37728B" fill-opacity="1.00" stroke="None">
<path d="
M 374.00 371.00 
C 372.84 364.29 376.28 354.80 375.00 347.00 C 373.72 339.20 375.82 329.95 375.00 322.00
C 374.72 307.45 351.22 300.84 343.92 314.92 C 336.63 329.01 343.79 349.40 341.00 365.00 C 338.21 380.60 348.52 397.78 366.00 391.00
C 365.41 383.29 356.22 382.24 358.68 373.68 C 361.14 365.12 368.32 367.51 374.00 371.00 Z"/>
</g>
<g fill="#9FBCC7" fill-opacity="1.00" stroke="None">
<path d="
M 392.00 377.00 
C 394.03 360.17 394.74 337.85 392.00 321.00
C 393.00 339.47 392.37 358.50 392.00 377.00 Z"/>
</g>
<g fill="#A2BDC8" fill-opacity="1.00" stroke="None">
<path d="
M 374.00 371.00 
C 374.13 372.03 375.17 372.59 376.00 373.00
C 374.45 356.35 378.51 337.83 375.00 322.00
C 375.82 329.95 373.72 339.20 375.00 347.00 C 376.28 354.80 372.84 364.29 374.00 371.00 Z"/>
</g>
<g fill="#91B2C0" fill-opacity="1.00" stroke="None">
<path d="
M 454.00 393.00 
C 446.05 390.49 435.79 392.80 427.00 392.00
C 429.14 395.06 436.30 392.14 440.00 393.00 C 443.70 393.86 450.07 392.30 454.00 393.00 Z"/>
</g>
<g fill="#9CB9C5" fill-opacity="1.00" stroke="None">
<path d="
M 276.00 409.00 
C 273.69 409.08 271.30 409.11 269.00 409.00
C 271.48 409.40 273.49 409.36 276.00 409.00 Z"/>
</g>
<g fill="#9DBAC6" fill-opacity="1.00" stroke="None">
<path d="
M 362.00 409.00 
C 359.71 409.11 357.29 409.11 355.00 409.00
C 357.51 409.41 359.44 409.42 362.00 409.00 Z"/>
</g>
</svg>
